HIERARCHY
ROOT Pelvis
{
	OFFSET 0.000000 0.000000 0.000000
	CHANNELS 6 Xposition Yposition Zposition Xrotation Yrotation Zrotation
	JOINT LeftUpLeg_virtual
	{
		OFFSET 0.000000 0.000000 0.000000
		CHANNELS 3 Xrotation Yrotation Zrotation
		JOINT LeftUpLeg
		{
			OFFSET 18.735201 -5.666702 -4.541200
			CHANNELS 3 Xrotation Yrotation Zrotation
			JOINT LeftLeg
			{
				OFFSET -0.021200 -31.938179 0.493100
				CHANNELS 3 Xrotation Yrotation Zrotation
				JOINT LeftFoot
				{
					OFFSET 0.021200 -31.938179 -4.336299
					CHANNELS 3 Xrotation Yrotation Zrotation
					JOINT LeftToeBase
					{
						OFFSET 0.943001 -26.722000 15.023500
						CHANNELS 3 Xrotation Yrotation Zrotation
						End Site
						{
							OFFSET 0 0 0
						}
					}
				}
			}
		}
	}
	JOINT RightUpLeg_virtual
	{
		OFFSET 0.000000 0.000000 0.000000
		CHANNELS 3 Xrotation Yrotation Zrotation
		JOINT RightUpLeg
		{
			OFFSET -18.735201 -5.666702 -4.541200
			CHANNELS 3 Xrotation Yrotation Zrotation
			JOINT RightLeg
			{
				OFFSET 0.018946 -31.938133 0.493100
				CHANNELS 3 Xrotation Yrotation Zrotation
				JOINT RightFoot
				{
					OFFSET -0.018946 -31.938126 -4.336299
					CHANNELS 3 Xrotation Yrotation Zrotation
					JOINT RightToeBase
					{
						OFFSET -0.943001 -26.722004 15.023500
						CHANNELS 3 Xrotation Yrotation Zrotation
						End Site
						{
							OFFSET 0 0 0
						}
					}
				}
			}
		}
	}
	JOINT Hips_virtual
	{
		OFFSET 0.000000 0.000000 0.000000
		CHANNELS 3 Xrotation Yrotation Zrotation
		JOINT Hips
		{
			OFFSET -0.000000 -0.000000 -0.000000
			CHANNELS 3 Xrotation Yrotation Zrotation
			JOINT Spine
			{
				OFFSET 0.000000 10.199997 -0.299500
				CHANNELS 3 Xrotation Yrotation Zrotation
				JOINT Spine1
				{
					OFFSET 0.000000 11.900002 -1.516600
					CHANNELS 3 Xrotation Yrotation Zrotation
					JOINT Spine2
					{
						OFFSET 0.000000 13.600006 -2.842500
						CHANNELS 3 Xrotation Yrotation Zrotation
						JOINT Neck_virtual
						{
							OFFSET 0.000000 0.000000 0.000000
							CHANNELS 3 Xrotation Yrotation Zrotation
							JOINT Neck
							{
								OFFSET 0.000000 9.624100 -2.890100
								CHANNELS 3 Xrotation Yrotation Zrotation
								JOINT Head
								{
									OFFSET 0.000000 14.068802 -1.351900
									CHANNELS 3 Xrotation Yrotation Zrotation
									End Site
									{
										OFFSET 0 0 0
									}
								}
							}
						}
						JOINT LeftShoulder_virtual
						{
							OFFSET 0.000000 0.000000 0.000000
							CHANNELS 3 Xrotation Yrotation Zrotation
							JOINT LeftShoulder
							{
								OFFSET 15.263000 10.923401 -0.547700
								CHANNELS 3 Xrotation Yrotation Zrotation
								JOINT LeftArm
								{
									OFFSET 25.438599 -2.830597 -13.032500
									CHANNELS 3 Xrotation Yrotation Zrotation
									JOINT LeftForeArm
									{
										OFFSET 29.960503 0.000000 0.000000
										CHANNELS 3 Xrotation Yrotation Zrotation
										JOINT LeftHand
										{
											OFFSET 27.849251 0.000000 0.000000
											CHANNELS 3 Xrotation Yrotation Zrotation
											End Site
											{
												OFFSET 0 0 0
											}
										}
									}
								}
							}
						}
						JOINT RightShoulder_virtual
						{
							OFFSET 0.000000 0.000000 0.000000
							CHANNELS 3 Xrotation Yrotation Zrotation
							JOINT RightShoulder
							{
								OFFSET -15.263000 10.923401 -0.547700
								CHANNELS 3 Xrotation Yrotation Zrotation
								JOINT RightArm
								{
									OFFSET -25.438599 -2.830597 -13.032500
									CHANNELS 3 Xrotation Yrotation Zrotation
									JOINT RightForeArm
									{
										OFFSET -29.960503 0.000000 0.000000
										CHANNELS 3 Xrotation Yrotation Zrotation
										JOINT RightHand
										{
											OFFSET -27.849251 0.000000 0.000000
											CHANNELS 3 Xrotation Yrotation Zrotation
											End Site
											{
												OFFSET 0 0 0
											}
										}
									}
								}
							}
						}
					}
				}
			}
		}
	}
}
MOTION
Frames: 5
Frame Time: 0.03333333
-3.035556 68.451859 7.982956 0.000000 0.000000 0.000000 -4.318898 -12.899583 -1.143441 -72.295271 -15.021695 3.413408 85.221479 13.839926 -14.273738 -14.984281 2.188751 -4.298807 0.000000 0.000000 0.000000 -5.821808 -11.357265 -1.810663 -85.119511 14.871217 12.750173 74.262577 -14.854838 17.475988 24.794673 3.973215 24.144850 0.000000 0.000000 0.000000 -5.442872 -11.993629 -1.164377 -0.825316 -0.511350 -0.262995 15.699374 3.499421 -5.883742 18.863032 4.041227 1.174004 0.000000 0.000000 0.000000 16.837045 8.714293 0.082980 -1.587440 -8.092772 0.138911 0.000000 0.000000 0.000000 16.569925 5.114886 1.322541 -6.654324 -7.094177 -15.374293 -42.068703 -38.354787 -58.455573 1.745378 -50.307386 2.362937 0.000000 0.000000 0.000000 16.004586 12.883823 -0.650949 -11.783665 3.423308 12.076159 -12.448981 56.059112 45.681958 48.200665 50.113853 -36.520591 0.000000 0.000000 0.000000 
-3.280967 68.212616 7.274399 0.000000 0.000000 0.000000 -4.809107 -13.305590 -1.352435 -71.973446 -15.966793 2.882211 84.516877 14.124483 -14.205132 -12.533078 2.045365 -4.176128 0.000000 0.000000 0.000000 -6.236345 -11.922883 -1.998783 -85.927079 12.986401 12.725956 71.542461 -14.177868 18.628832 25.963987 4.726409 23.234275 0.000000 0.000000 0.000000 -5.781039 -12.241892 -1.296568 -0.843366 -0.534062 -0.277672 16.229817 3.889271 -6.303064 18.544778 4.006933 1.553984 0.000000 0.000000 0.000000 16.612021 8.649933 0.534250 -1.851434 -8.172584 0.087511 0.000000 0.000000 0.000000 16.440390 4.999329 1.844765 -7.001696 -7.556491 -15.751398 -41.404805 -38.401591 -57.728492 2.747926 -50.102730 3.170821 0.000000 0.000000 0.000000 15.805015 12.854527 -0.266433 -12.563678 4.931303 11.706718 -16.245666 51.818617 47.245808 46.954508 50.335335 -33.827724 0.000000 0.000000 0.000000 
-3.589812 67.859848 6.796059 0.000000 0.000000 0.000000 -5.298661 -13.935181 -1.530656 -71.737402 -16.777149 2.669543 84.298898 14.339677 -14.362191 -11.099775 2.132925 -3.670001 0.000000 0.000000 0.000000 -6.701720 -12.533938 -2.168743 -86.092909 11.948666 13.345649 67.956585 -14.163044 19.016032 29.668019 5.769337 22.349612 0.000000 0.000000 0.000000 -6.214135 -12.422572 -1.401021 -0.867670 -0.550418 -0.297585 16.479515 4.232010 -6.430811 18.357264 3.923234 1.829651 0.000000 0.000000 0.000000 16.489161 8.538837 0.856628 -2.029836 -8.177179 -0.015752 0.000000 0.000000 0.000000 16.440347 4.822742 2.215044 -7.395900 -8.007152 -16.243153 -40.772227 -38.229074 -57.102939 3.483937 -49.672445 3.828271 0.000000 0.000000 0.000000 15.806256 12.810442 0.019319 -13.379614 6.541798 11.082377 -18.975642 47.475443 48.818996 46.199577 50.893512 -32.179634 0.000000 0.000000 0.000000 
-3.872475 67.367172 6.617073 0.000000 0.000000 0.000000 -5.856088 -14.438861 -1.619909 -71.619834 -17.271534 2.858296 84.585705 14.344908 -14.815435 -10.697326 2.391627 -2.864743 0.000000 0.000000 0.000000 -7.257493 -12.932077 -2.239276 -86.036034 11.754596 14.859136 63.990745 -14.558984 18.757614 34.516224 6.884263 21.382971 0.000000 0.000000 0.000000 -6.838826 -12.453492 -1.460367 -0.885710 -0.557191 -0.318219 16.499683 4.469424 -6.347632 18.267592 3.783961 2.029229 0.000000 0.000000 0.000000 16.465219 8.389015 1.079110 -2.105580 -8.117839 -0.142019 0.000000 0.000000 0.000000 16.527787 4.597376 2.453365 -7.824761 -8.437901 -16.831212 -40.081845 -37.883146 -56.501347 3.963020 -49.193256 4.317834 0.000000 0.000000 0.000000 15.924364 12.744589 0.246334 -14.193662 8.232208 10.388435 -20.734754 43.272435 50.476625 45.759525 51.597810 -31.396819 0.000000 0.000000 0.000000 
-4.166497 66.774490 6.695099 0.000000 0.000000 0.000000 -6.524147 -14.701552 -1.587862 -71.608434 -17.238195 3.506250 85.256115 14.111621 -15.644072 -10.715599 2.884280 -1.773921 0.000000 0.000000 0.000000 -8.000742 -12.978353 -2.191970 -85.958812 12.012277 16.681163 60.749390 -15.412445 18.444511 37.893118 6.935714 20.026287 0.000000 0.000000 0.000000 -7.664462 -12.268742 -1.449055 -0.896882 -0.566575 -0.335014 16.328097 4.583749 -6.176798 18.246179 3.582437 2.170370 0.000000 0.000000 0.000000 16.512220 8.210930 1.245398 -2.084643 -8.007573 -0.255066 0.000000 0.000000 0.000000 16.628550 4.337151 2.599038 -8.249393 -8.852954 -17.406913 -39.272283 -37.496782 -55.843893 4.206132 -48.890682 4.624799 0.000000 0.000000 0.000000 16.044845 12.647649 0.440507 -14.997200 9.953592 9.882108 -21.263619 39.470294 51.849633 45.644952 52.521197 -31.428634 0.000000 0.000000 0.000000 
